<svg xmlns="http://www.w3.org/2000/svg" width="32" height="28" viewBox="0 0 36 31.611">
  <g id="Groupe_386" data-name="Groupe 386" transform="translate(-3738 -666)">
    <path id="Tracé_669" data-name="Tracé 669" d="M3772.944,690.016l-12.359-21.4-.017-.029c-.159-.259-1.626-2.533-3.954-2.591h-1.259c-2.3.058-3.765,2.332-3.925,2.591L3739.065,690c-.19.317-1.826,3.156-.635,5.251a4.5,4.5,0,0,0,3.981,2.361h27.176a4.5,4.5,0,0,0,3.981-2.361C3774.76,693.154,3773.125,690.315,3772.944,690.016Zm-1.4,4.082a2.161,2.161,0,0,1-1.955,1.183h-27.176a2.159,2.159,0,0,1-1.954-1.183c-.373-.655.142-2.118.616-2.917l12.348-21.375c.25-.391,1.119-1.453,1.965-1.475h1.2c.877.023,1.749,1.091,1.993,1.474l12.357,21.392C3771.4,691.98,3771.915,693.443,3771.542,694.1Z" fill="#E0AD03"/>
    <g id="Groupe_385" data-name="Groupe 385" transform="translate(3754.035 674.724)">
      <path id="Tracé_670" data-name="Tracé 670" d="M3770.069,699.773a1.941,1.941,0,0,1,.669-1.52,2.645,2.645,0,0,1,3.34,0,2.06,2.06,0,0,1,0,3.04,2.645,2.645,0,0,1-3.34,0A1.94,1.94,0,0,1,3770.069,699.773Zm4.078-3.879h-3.416l-.537-12.447h4.49Z" transform="translate(-3770.069 -683.447)" fill="#E0AD03"/>
    </g>
  </g>
</svg>
