<svg xmlns="http://www.w3.org/2000/svg" width="25.762" height="24.965" viewBox="0 0 25.762 24.965">
  <g id="Groupe_392" data-name="Groupe 392" transform="translate(-430 -222.009)">
    <g id="Groupe_377" data-name="Groupe 377" transform="translate(137.203 -1851.299)">
      <rect id="Rectangle_93" data-name="Rectangle 93" width="24.288" height="6.088" transform="translate(293.457 2075.983)" fill="#b4cce0"/>
      <path id="Tracé_249" data-name="Tracé 249" d="M318.559,2075.129h-3.573v-1.136a.685.685,0,0,0-1.371,0v1.136h-15.75v-1.136a.685.685,0,0,0-1.371,0v1.136h-3.7v23.144h20.338l1.505-1.371h-.018l2.566-2.281v.013l.91-.822.127-.113h0l.334-.3Zm-24.391,1.371h2.327v1.136a.685.685,0,0,0,1.371,0V2076.5h15.75v1.136a.685.685,0,0,0,1.371,0V2076.5h2.2v4.824h-23.02Zm0,5.607h23.02v10.681l-.009.008h-4.8v4.106H294.168Zm22.13,11.472-3.138,2.789v-2.789Z" fill="#223654"/>
    </g>
  </g>
</svg>
