<svg xmlns="http://www.w3.org/2000/svg" width="24" height="24" viewBox="0 0 24 24">
  <g id="Groupe_596" data-name="Groupe 596" transform="translate(-16 -370)">
    <g id="Tracé_793" data-name="Tracé 793" transform="translate(16 370)" fill="none">
      <path d="M12,0A12,12,0,1,1,0,12,12,12,0,0,1,12,0Z" stroke="none"/>
      <path d="M 12 1 C 9.061790466308594 1 6.299449920654297 2.144199371337891 4.221820831298828 4.221820831298828 C 2.144199371337891 6.299449920654297 1 9.061790466308594 1 12 C 1 14.93820953369141 2.144199371337891 17.7005500793457 4.221820831298828 19.77817916870117 C 6.299449920654297 21.85580062866211 9.061790466308594 23 12 23 C 14.93820953369141 23 17.7005500793457 21.85580062866211 19.77817916870117 19.77817916870117 C 21.85580062866211 17.7005500793457 23 14.93820953369141 23 12 C 23 9.061790466308594 21.85580062866211 6.299449920654297 19.77817916870117 4.221820831298828 C 17.7005500793457 2.144199371337891 14.93820953369141 1 12 1 M 12 0 C 18.62742042541504 0 24 5.372579574584961 24 12 C 24 18.62742042541504 18.62742042541504 24 12 24 C 5.372579574584961 24 0 18.62742042541504 0 12 C 0 5.372579574584961 5.372579574584961 0 12 0 Z" stroke="none" fill="#095797"/>
    </g>
    <path id="Tracé_820" data-name="Tracé 820" d="M2.372-3.056A4.1,4.1,0,0,1,2.6-4.58,3.128,3.128,0,0,1,3.456-5.7a4.353,4.353,0,0,0,.824-.9,1.4,1.4,0,0,0,.205-.728q0-1.155-1.066-1.155a1.082,1.082,0,0,0-.81.311,1.221,1.221,0,0,0-.318.858H.308a2.633,2.633,0,0,1,.844-2.044,3.289,3.289,0,0,1,2.266-.738,3.3,3.3,0,0,1,2.249.7,2.491,2.491,0,0,1,.8,1.979,2.408,2.408,0,0,1-.26,1.1A4.52,4.52,0,0,1,5.3-5.168l-.554.526a1.875,1.875,0,0,0-.595,1.169l-.027.417Zm-.2,2.1a1,1,0,0,1,.311-.755,1.105,1.105,0,0,1,.8-.3,1.105,1.105,0,0,1,.8.3,1,1,0,0,1,.311.755.992.992,0,0,1-.3.745,1.107,1.107,0,0,1-.8.294,1.107,1.107,0,0,1-.8-.294A.992.992,0,0,1,2.174-.957Z" transform="translate(25 387)" fill="#095797"/>
  </g>
</svg>
