<svg xmlns="http://www.w3.org/2000/svg" width="32" height="32" viewBox="0 0 32 32">
  <g id="Groupe_384" data-name="Groupe 384" transform="translate(-3648 -666.001)">
    <path id="Tracé_12" data-name="Tracé 12" d="M3683.533,699.533l-4.414-4.413,4.415-4.415-2-2-4.415,4.414-4.413-4.412-2,2,4.414,4.415-4.414,4.415,2,2,4.414-4.415,4.415,4.415Z" transform="translate(-12.619 -12.616)" fill="#CB381F"/>
    <g id="Groupe_383" data-name="Groupe 383" transform="translate(3648 666.001)">
      <g id="Groupe_382" data-name="Groupe 382">
        <path id="Tracé_668" data-name="Tracé 668" d="M3664,698a16,16,0,1,1,16-16A16.018,16.018,0,0,1,3664,698Zm0-29.884A13.884,13.884,0,1,0,3677.884,682,13.9,13.9,0,0,0,3664,668.117Z" transform="translate(-3648 -666.001)" fill="#CB381F"/>
      </g>
    </g>
  </g>
</svg>
