<svg xmlns="http://www.w3.org/2000/svg" width="32" height="25.186" viewBox="0 0 32 25.186">
  <g id="Groupe_391" data-name="Groupe 391" transform="translate(-373 -222)">
    <g id="Groupe_376" data-name="Groupe 376" transform="translate(234)">
      <g id="Groupe_369" data-name="Groupe 369" transform="translate(-3399.1 -369.944)">
        <g id="Groupe_371" data-name="Groupe 371" transform="translate(3538.1 591.944)">
          <g id="Groupe_369-2" data-name="Groupe 369" transform="translate(0.651 0.68)">
            <path id="Tracé_659" data-name="Tracé 659" d="M3554.723,600.36a26.607,26.607,0,0,0,3.024,3.941,7.087,7.087,0,0,1,4.993-2.062l.12,0c-1.021-1.525-2.3-3.4-3.317-4.8-2.027-2.773-3.6-3.9-4.774-3.9s-4.685,1.128-7.792,2.585a32.2,32.2,0,0,1-7.342,2.115V608.3c1.487,1.927,5.5,3.289,7.432,3.289a17.5,17.5,0,0,0,5.279-1.268h7.287a2.728,2.728,0,0,0,0-5.451h-7.927A8.951,8.951,0,0,0,3554.723,600.36Z" transform="translate(-3539.634 -593.545)" fill="#fff"/>
          </g>
          <g id="Groupe_370" data-name="Groupe 370" transform="translate(0 0)">
            <path id="Tracé_660" data-name="Tracé 660" d="M3546.183,611.349c-2.073,0-6.3-1.413-7.939-3.543l-.144-.187V596.737l.555-.086a31.746,31.746,0,0,0,7.171-2.062c3.109-1.458,6.724-2.644,8.058-2.644,1.511,0,3.243,1.363,5.292,4.168,1.059,1.448,2.4,3.42,3.334,4.818l.737,1.1-1.391-.033a6.428,6.428,0,0,0-3.837,1.272h.73a3.408,3.408,0,0,1,0,6.811h-7.17A17.922,17.922,0,0,1,3546.183,611.349Zm-6.78-4.221c1.446,1.644,5.038,2.861,6.78,2.861a17.14,17.14,0,0,0,5.05-1.225l.11-.043h7.405a2.048,2.048,0,0,0,0-4.091h-10.044l1.751-1.242a8.255,8.255,0,0,0,2.755-4.129l.459-1.745.756,1.629a19.319,19.319,0,0,0,2.5,3.287,7.736,7.736,0,0,1,3.851-1.715c-.834-1.234-1.818-2.665-2.632-3.778-2.311-3.161-3.658-3.633-4.256-3.633-1.01,0-4.442,1.08-7.524,2.525a31.189,31.189,0,0,1-6.957,2.071Zm13.127-3.858h3.364c-.92-1.081-1.514-1.834-1.9-2.362A9.967,9.967,0,0,1,3552.53,603.269Z" transform="translate(-3538.1 -591.944)" fill="#283857"/>
          </g>
        </g>
        <g id="Groupe_373" data-name="Groupe 373" transform="translate(3553.582 600.64)">
          <g id="Groupe_372" data-name="Groupe 372" transform="translate(0 0)">
            <path id="Tracé_661" data-name="Tracé 661" d="M3583.832,614.032a7.545,7.545,0,0,0-5.731,2.63h2.364a2.725,2.725,0,1,1,0,5.451h-4.178a7.564,7.564,0,1,0,7.546-8.081Z" transform="translate(-3575.56 -613.352)" fill="#aac4db"/>
            <path id="Tracé_662" data-name="Tracé 662" d="M3582.846,628.92a8.263,8.263,0,0,1-8.225-7.684l-.049-.725h4.906a2.046,2.046,0,1,0,0-4.091h-3.847l.968-1.124a8.244,8.244,0,1,1,6.246,13.624Zm-6.78-7.05a6.888,6.888,0,1,0,2.8-6.811h.615a3.405,3.405,0,1,1,0,6.811Z" transform="translate(-3574.573 -612.43)" fill="#283857"/>
          </g>
        </g>
      </g>
    </g>
  </g>
</svg>
