<svg xmlns="http://www.w3.org/2000/svg" width="32" height="32" viewBox="0 0 32 32">
  <g id="Groupe_387" data-name="Groupe 387" transform="translate(-3648 -582)">
    <g id="Groupe_379" data-name="Groupe 379" transform="translate(3648 582)">
      <g id="Groupe_378" data-name="Groupe 378">
        <path id="Tracé_666" data-name="Tracé 666" d="M3664,614a16,16,0,1,1,16-16A16.018,16.018,0,0,1,3664,614Zm0-29.884A13.884,13.884,0,1,0,3677.884,598,13.9,13.9,0,0,0,3664,584.116Z" transform="translate(-3648 -582)" fill="#095797"/>
      </g>
    </g>
    <g id="Groupe_380" data-name="Groupe 380" transform="translate(3661.866 589.704)">
      <path id="Tracé_667" data-name="Tracé 667" d="M3679.2,601.157a1.673,1.673,0,0,1,.579-1.312,2.459,2.459,0,0,1,3,0,1.779,1.779,0,0,1,0,2.625,2.459,2.459,0,0,1-3,0A1.673,1.673,0,0,1,3679.2,601.157Zm3.981,15.137h-3.759V604.26h3.759Z" transform="translate(-3679.199 -599.333)" fill="#095797"/>
    </g>
  </g>
</svg>
