<?xml version="1.0" encoding="utf-8"?>
<svg version="1.1" width="20" height="20" viewBox="0 0 20 20" xmlns="http://www.w3.org/2000/svg">
  <path d="M 10.036 10.977 C 7.003 10.977 4.536 8.51 4.536 5.477 C 4.536 2.444 7.003 -0.023 10.036 -0.023 C 13.069 -0.023 15.536 2.444 15.536 5.477 C 15.536 8.51 13.069 10.977 10.036 10.977 Z M 10.269 5.517 C 7.788 5.517 10.286 3.019 10.286 5.5 C 10.286 7.981 7.788 5.53 10.269 5.53 C 12.75 5.53 10.252 7.981 10.252 5.5 C 10.252 3.019 12.75 5.517 10.269 5.517 Z" style="fill: #223654;"/>
  <path d="M 17.966 20.023 L 1.966 20.023 C 1.139 20.023 0.466 19.35 0.466 18.523 C 0.466 18.455 0.48 16.838 1.691 15.223 C 2.396 14.283 3.361 13.536 4.56 13.004 C 6.024 12.353 7.843 12.023 9.966 12.023 C 12.089 12.023 13.908 12.353 15.372 13.004 C 16.571 13.537 17.536 14.283 18.241 15.223 C 19.452 16.838 19.466 18.455 19.466 18.523 C 19.466 19.35 18.793 20.023 17.966 20.023 Z M 9.78 19.053 C 6.293 19.053 11.17 17.259 9.789 19.062 C 8.754 20.413 9.779 19 9.801 19.084 C 9.754 19.451 1.69 19.023 1.966 19.023 L 9.77 19.023 C 10.046 19.023 9.851 19.288 9.851 19.012 C 9.851 19 10.853 20.39 9.817 19.039 C 8.435 17.236 13.266 19.053 9.78 19.053 Z" fill="#223654"/>
  <path style="fill: #223654; stroke: rgb(0, 0, 0);" d="M 9.616 17.413"/>
</svg>